<svg xmlns="http://www.w3.org/2000/svg" viewBox="0 0 185.78 32">
  <defs>
    <style>.cls-1{fill:#003479;}.cls-2{fill:#fff;}</style>
  </defs>
  <g id="Layer_2" data-name="Layer 2">
    <g id="Layer_1-2" data-name="Layer 1">
      <rect class="cls-1" width="32" height="32" rx="1"/>
      <path class="cls-2" d="M8,12V9.14A1.15,1.15,0,0,1,9.14,8H12v4"/>
      <path class="cls-2" d="M8,16h4v7.47a.56.56,0,0,1-.57.53H8.57A.56.56,0,0,1,8,23.47"/>
      <path class="cls-2" d="M16,8h7.43a.58.58,0,0,1,.57.57V12H16"/>
      <path class="cls-2" d="M23.43,20H16V16h8v3.43A.58.58,0,0,1,23.43,20Z"/>
      <path class="cls-1" d="M49,18.25V24H47V18.25L41.91,9.79l2-.42,4.11,7,4-6.89h2.25Z"/>
      <path class="cls-1" d="M61.66,24V17.18c0-1-.44-1.73-1.53-1.73a4.29,4.29,0,0,0-2.9,1.62V24H55.36V9.13l1.87-.29v6.47a5.2,5.2,0,0,1,3.4-1.54,2.67,2.67,0,0,1,2.9,2.94V24Z"/>
      <path class="cls-1" d="M69.47,24.17c-1.76,0-2.91-.63-2.91-2.65v-6H65V14h1.52V10.65l1.82-.28V14h2.16l.26,1.58H68.38v5.63c0,.82.34,1.32,1.39,1.32a5.26,5.26,0,0,0,.86-.06L70.88,24A7.14,7.14,0,0,1,69.47,24.17Z"/>
      <path class="cls-1" d="M76.66,24.21C74.06,24.21,72,22.64,72,19c0-3.21,1.89-5.19,4.41-5.19,2.92,0,4.27,2.25,4.27,5v.4H73.89c.09,2.33,1.18,3.42,2.92,3.42a5.5,5.5,0,0,0,3.59-1.42l.27,1.68A6.23,6.23,0,0,1,76.66,24.21ZM74,17.78h4.83c-.23-1.61-1-2.54-2.4-2.54C75.26,15.24,74.27,16.08,74,17.78Z"/>
      <path class="cls-1" d="M86.85,24.21c-2.6,0-4.64-1.57-4.64-5.25,0-3.21,1.89-5.19,4.41-5.19,2.92,0,4.26,2.25,4.26,5v.4h-6.8c.08,2.33,1.17,3.42,2.92,3.42a5.53,5.53,0,0,0,3.59-1.42l.27,1.68A6.23,6.23,0,0,1,86.85,24.21Zm-2.69-6.43H89c-.23-1.61-.94-2.54-2.39-2.54C85.44,15.24,84.46,16.08,84.16,17.78Z"/>
      <path class="cls-1" d="M99.26,24V17.18c0-1-.44-1.73-1.53-1.73a4.27,4.27,0,0,0-2.9,1.62V24H93V14h1.49l.23,1.45a5.39,5.39,0,0,1,3.55-1.66,2.67,2.67,0,0,1,2.9,2.94V24Z"/>
      <path class="cls-1" d="M107.14,24.17c-1.77,0-2.92-.63-2.92-2.65v-6H102.7V14h1.52V10.65l1.82-.28V14h2.17l.25,1.58H106v5.63c0,.82.34,1.32,1.39,1.32a5.17,5.17,0,0,0,.86-.06l.25,1.59A7,7,0,0,1,107.14,24.17Z"/>
      <path class="cls-1" d="M114.46,24.21c-2.66,0-4.59-1.91-4.59-5.21s1.93-5.23,4.59-5.23,4.67,1.94,4.67,5.23S117.15,24.21,114.46,24.21Zm0-8.88c-1.8,0-2.7,1.57-2.7,3.67s.94,3.66,2.7,3.66,2.78-1.56,2.78-3.66S116.27,15.33,114.46,15.33Z"/>
      <path class="cls-1" d="M122.3,12a1.19,1.19,0,1,1,0-2.37,1.19,1.19,0,0,1,0,2.37Zm-1,12V14h1.87V24Z"/>
      <path class="cls-1" d="M138.36,24V17.18c0-1-.38-1.73-1.47-1.73a4.13,4.13,0,0,0-2.83,1.62V24h-1.87V17.18c0-1-.38-1.73-1.47-1.73a4.17,4.17,0,0,0-2.84,1.62V24H126V14h1.5l.23,1.45a5.25,5.25,0,0,1,3.48-1.66,2.5,2.5,0,0,1,2.65,1.66,5.28,5.28,0,0,1,3.52-1.66,2.61,2.61,0,0,1,2.84,2.94V24Z"/>
      <path class="cls-1" d="M143.93,12a1.19,1.19,0,1,1,0-2.37,1.19,1.19,0,0,1,0,2.37Zm-1,12V14h1.87V24Z"/>
      <path class="cls-1" d="M152,24.06h-1.82l-3.53-9.93,1.91-.29,2.56,7.91L153.63,14h2Z"/>
      <path class="cls-1" d="M159.07,14v6.83c0,1,.44,1.72,1.53,1.72a4.27,4.27,0,0,0,2.9-1.62V14h1.87V24h-1.49l-.24-1.45a5.32,5.32,0,0,1-3.54,1.66,2.65,2.65,0,0,1-2.9-2.94V14Z"/>
      <path class="cls-1" d="M169.84,14v6.83c0,1,.44,1.72,1.53,1.72a4.27,4.27,0,0,0,2.9-1.62V14h1.87V24h-1.49l-.23-1.45a5.35,5.35,0,0,1-3.55,1.66,2.65,2.65,0,0,1-2.9-2.94V14Z"/>
      <path class="cls-1" d="M181.83,24.21a8.11,8.11,0,0,1-3.65-.95l.27-1.76A6.28,6.28,0,0,0,182,22.66c1.28,0,2-.49,2-1.33s-.56-1.26-2.37-1.7c-2.35-.59-3.29-1.3-3.29-3.08,0-1.6,1.34-2.78,3.52-2.78a8.13,8.13,0,0,1,3.3.68l-.29,1.76a6.48,6.48,0,0,0-3-.86c-1.13,0-1.72.44-1.72,1.15s.5,1.05,2.08,1.45c2.48.63,3.59,1.35,3.59,3.26S184.41,24.21,181.83,24.21Z"/>
    </g>
  </g>
</svg>
