<svg xmlns="http://www.w3.org/2000/svg" viewBox="0 0 235.92 32">
  <defs>
    <style>.cls-1{fill:#003479;}.cls-2{fill:#fff;}</style>
  </defs>
  <g id="Layer_2" data-name="Layer 2">
    <g id="Layer_1-2" data-name="Layer 1">
      <path class="cls-1" d="M51.62,18.52v5.75h-2V18.52l-5.12-8.45,2-.42,4.11,7,4-6.88h2.24Z" />
      <path class="cls-1" d="M63.84,24.27V17.45c0-1-.44-1.72-1.53-1.72a4.27,4.27,0,0,0-2.89,1.62v6.92H57.55V9.42l1.87-.3v6.46a5.22,5.22,0,0,1,3.4-1.53A2.66,2.66,0,0,1,65.71,17v7.28Z" />
      <path class="cls-1" d="M71.54,24.44c-1.76,0-2.92-.63-2.92-2.65v-6H67.11V14.26h1.51V10.93l1.83-.28v3.61h2.16l.25,1.57H70.45v5.63c0,.82.34,1.32,1.38,1.32a5.39,5.39,0,0,0,.87-.06L73,24.31A7.22,7.22,0,0,1,71.54,24.44Z" />
      <path class="cls-1" d="M78.74,24.48c-2.61,0-4.64-1.57-4.64-5.25,0-3.21,1.89-5.18,4.4-5.18,2.92,0,4.26,2.25,4.26,5v.39H76c.08,2.33,1.17,3.42,2.91,3.42a5.5,5.5,0,0,0,3.59-1.42l.27,1.68A6.22,6.22,0,0,1,78.74,24.48Zm-2.69-6.42h4.83c-.23-1.62-.95-2.54-2.4-2.54C77.33,15.52,76.34,16.36,76.05,18.06Z" />
      <path class="cls-1" d="M88.74,24.48c-2.6,0-4.64-1.57-4.64-5.25,0-3.21,1.89-5.18,4.41-5.18,2.92,0,4.26,2.25,4.26,5v.39H86c.09,2.33,1.18,3.42,2.92,3.42a5.55,5.55,0,0,0,3.59-1.42l.27,1.68A6.23,6.23,0,0,1,88.74,24.48Zm-2.68-6.42h4.82c-.23-1.62-.94-2.54-2.39-2.54C87.33,15.52,86.35,16.36,86.06,18.06Z" />
      <path class="cls-1" d="M101,24.27V17.45c0-1-.44-1.72-1.53-1.72a4.29,4.29,0,0,0-2.9,1.62v6.92H94.68v-10h1.49l.23,1.45a5.37,5.37,0,0,1,3.54-1.66,2.66,2.66,0,0,1,2.9,2.94v7.28Z" />
      <path class="cls-1" d="M108.67,24.44c-1.77,0-2.92-.63-2.92-2.65v-6h-1.51V14.26h1.51V10.93l1.83-.28v3.61h2.16l.25,1.57h-2.41v5.63c0,.82.33,1.32,1.38,1.32a5.17,5.17,0,0,0,.86-.06l.25,1.59A7,7,0,0,1,108.67,24.44Z" />
      <path class="cls-1" d="M115.82,24.48c-2.67,0-4.6-1.91-4.6-5.2s1.93-5.23,4.6-5.23,4.66,1.93,4.66,5.23S118.5,24.48,115.82,24.48Zm0-8.88c-1.8,0-2.71,1.58-2.71,3.68s1,3.65,2.71,3.65,2.77-1.56,2.77-3.65S117.62,15.6,115.82,15.6Z" />
      <path class="cls-1" d="M123.47,12.25a1.19,1.19,0,1,1,1.18-1.18A1.19,1.19,0,0,1,123.47,12.25Zm-.94,12v-10h1.87v10Z" />
      <path class="cls-1" d="M139.35,24.27V17.45c0-1-.37-1.72-1.46-1.72a4.17,4.17,0,0,0-2.84,1.62v6.92h-1.86V17.45c0-1-.38-1.72-1.47-1.72a4.13,4.13,0,0,0-2.83,1.62v6.92H127v-10h1.49l.23,1.45a5.27,5.27,0,0,1,3.48-1.66,2.5,2.5,0,0,1,2.65,1.66,5.26,5.26,0,0,1,3.52-1.66A2.6,2.6,0,0,1,141.22,17v7.28Z" />
      <path class="cls-1" d="M144.74,12.25a1.19,1.19,0,1,1,1.18-1.18A1.19,1.19,0,0,1,144.74,12.25Zm-.94,12v-10h1.87v10Z" />
      <path class="cls-1" d="M152.67,24.33h-1.82l-3.53-9.92,1.91-.3L151.79,22l2.48-7.76h1.95Z" />
      <path class="cls-1" d="M159.53,14.26v6.82c0,1,.44,1.72,1.53,1.72a4.31,4.31,0,0,0,2.9-1.61V14.26h1.86v10h-1.49l-.23-1.45a5.32,5.32,0,0,1-3.54,1.66,2.65,2.65,0,0,1-2.9-2.94V14.26Z" />
      <path class="cls-1" d="M170.12,14.26v6.82c0,1,.44,1.72,1.53,1.72a4.29,4.29,0,0,0,2.9-1.61V14.26h1.87v10h-1.49l-.23-1.45a5.35,5.35,0,0,1-3.55,1.66,2.65,2.65,0,0,1-2.9-2.94V14.26Z" />
      <path class="cls-1" d="M181.93,24.48a8.25,8.25,0,0,1-3.65-.94l.27-1.77a6.28,6.28,0,0,0,3.53,1.16c1.28,0,2-.49,2-1.33s-.56-1.25-2.37-1.69c-2.35-.59-3.29-1.31-3.29-3.09,0-1.59,1.34-2.77,3.52-2.77a8.13,8.13,0,0,1,3.3.67l-.3,1.77a6.31,6.31,0,0,0-3-.87c-1.13,0-1.72.45-1.72,1.16s.5,1,2.08,1.45c2.47.63,3.59,1.34,3.59,3.25S184.51,24.48,181.93,24.48Z" />
      <path class="cls-1" d="M193.76,24.27l-.21-1.34A4.72,4.72,0,0,1,190,24.48a2.67,2.67,0,0,1-2.94-2.79c0-2.5,2.14-3.48,6.32-3.92v-.42c0-1.26-.76-1.7-1.91-1.7a8.54,8.54,0,0,0-3.47.86l-.25-1.62a9.75,9.75,0,0,1,3.88-.84c2.44,0,3.61,1,3.61,3.21v7Zm-.35-5.08c-3.7.36-4.47,1.37-4.47,2.39a1.31,1.31,0,0,0,1.49,1.35,4.26,4.26,0,0,0,3-1.41Z" />
      <path class="cls-1" d="M197.85,24.27V9.42l1.87-.3V24.27Z" />
      <path class="cls-1" d="M204.16,14.26v6.82c0,1,.44,1.72,1.54,1.72a4.29,4.29,0,0,0,2.89-1.61V14.26h1.87v10H209l-.23-1.45a5.35,5.35,0,0,1-3.55,1.66,2.65,2.65,0,0,1-2.89-2.94V14.26Z" />
      <path class="cls-1" d="M216,24.48a8.25,8.25,0,0,1-3.65-.94l.28-1.77a6.25,6.25,0,0,0,3.52,1.16c1.28,0,2-.49,2-1.33s-.57-1.25-2.38-1.69c-2.35-.59-3.29-1.31-3.29-3.09,0-1.59,1.34-2.77,3.53-2.77a8.08,8.08,0,0,1,3.29.67L219,16.49a6.38,6.38,0,0,0-3.05-.87c-1.13,0-1.72.45-1.72,1.16s.51,1,2.08,1.45c2.48.63,3.59,1.34,3.59,3.25S218.55,24.48,216,24.48Z" />
      <path class="cls-1" d="M225.14,24.44c-1.76,0-2.92-.63-2.92-2.65v-6h-1.51V14.26h1.51V10.93l1.83-.28v3.61h2.16l.25,1.57h-2.41v5.63c0,.82.33,1.32,1.38,1.32a5.17,5.17,0,0,0,.86-.06l.26,1.59A7.22,7.22,0,0,1,225.14,24.44Z" />
      <path class="cls-1" d="M234.41,24.27l-.21-1.34a4.72,4.72,0,0,1-3.52,1.55,2.67,2.67,0,0,1-2.94-2.79c0-2.5,2.14-3.48,6.31-3.92v-.42c0-1.26-.75-1.7-1.9-1.7a8.5,8.5,0,0,0-3.47.86l-.25-1.62a9.75,9.75,0,0,1,3.88-.84c2.44,0,3.61,1,3.61,3.21v7Zm-.36-5.08c-3.69.36-4.46,1.37-4.46,2.39a1.31,1.31,0,0,0,1.49,1.35,4.22,4.22,0,0,0,3-1.41Z" />
      <rect class="cls-1" width="32" height="32" rx="1" />
      <path class="cls-2" d="M8,12V9.14A1.15,1.15,0,0,1,9.14,8H12v4" />
      <path class="cls-2" d="M8,16h4v7.47a.56.56,0,0,1-.57.53H8.57A.56.56,0,0,1,8,23.47" />
      <path class="cls-2" d="M16,8h7.43a.58.58,0,0,1,.57.57V12H16" />
      <path class="cls-2" d="M23.43,20H16V16h8v3.43A.58.58,0,0,1,23.43,20Z" />
    </g>
  </g>
</svg>
