<svg xmlns="http://www.w3.org/2000/svg" viewBox="0 0 221.89 32">
  <defs>
    <style>.cls-1{fill:#003479;}.cls-2{fill:#fff;}</style>
  </defs>
  <g id="Layer_2" data-name="Layer 2">
    <g id="Layer_1-2" data-name="Layer 1">
      <path class="cls-1" d="M50.52,18.51v5.35H48.69V18.51l-4.76-7.86,1.88-.39,3.82,6.54,3.7-6.4h2.09Z" />
      <path class="cls-1" d="M61.89,23.86V17.52c0-1-.41-1.6-1.42-1.6a4,4,0,0,0-2.69,1.5v6.44H56V10.05l1.74-.27v6a4.83,4.83,0,0,1,3.16-1.42,2.47,2.47,0,0,1,2.69,2.73v6.77Z" />
      <path class="cls-1" d="M69.05,24c-1.64,0-2.71-.58-2.71-2.46V16h-1.4V14.55h1.4v-3.1L68,11.2v3.35h2L70.28,16H68v5.22c0,.76.31,1.23,1.29,1.23a4.58,4.58,0,0,0,.8-.06l.23,1.48A6.3,6.3,0,0,1,69.05,24Z" />
      <path class="cls-1" d="M75.74,24.05c-2.42,0-4.31-1.46-4.31-4.87,0-3,1.76-4.82,4.1-4.82,2.71,0,4,2.09,4,4.66v.37H73.17c.08,2.16,1.09,3.18,2.71,3.18a5.12,5.12,0,0,0,3.33-1.33l.26,1.56A5.82,5.82,0,0,1,75.74,24.05Zm-2.49-6h4.48c-.21-1.5-.88-2.36-2.22-2.36C74.44,15.72,73.52,16.5,73.25,18.08Z" />
      <path class="cls-1" d="M85,24.05c-2.41,0-4.31-1.46-4.31-4.87,0-3,1.76-4.82,4.1-4.82,2.71,0,4,2.09,4,4.66v.37H82.47c.08,2.16,1.09,3.18,2.71,3.18a5.14,5.14,0,0,0,3.34-1.33l.25,1.56A5.8,5.8,0,0,1,85,24.05Zm-2.49-6H87c-.21-1.5-.87-2.36-2.22-2.36C83.74,15.72,82.82,16.5,82.55,18.08Z" />
      <path class="cls-1" d="M96.41,23.86V17.52c0-1-.41-1.6-1.42-1.6a4,4,0,0,0-2.69,1.5v6.44H90.56V14.55H92l.21,1.35a5,5,0,0,1,3.3-1.54,2.47,2.47,0,0,1,2.69,2.73v6.77Z" />
      <path class="cls-1" d="M103.57,24c-1.64,0-2.71-.58-2.71-2.46V16h-1.4V14.55h1.4v-3.1l1.7-.25v3.35h2L104.8,16h-2.24v5.22c0,.76.31,1.23,1.29,1.23a4.38,4.38,0,0,0,.79-.06l.24,1.48A6.3,6.3,0,0,1,103.57,24Z" />
      <path class="cls-1" d="M110.22,24.05c-2.47,0-4.27-1.77-4.27-4.84s1.8-4.85,4.27-4.85,4.33,1.79,4.33,4.85S112.72,24.05,110.22,24.05Zm0-8.25c-1.67,0-2.51,1.46-2.51,3.41s.87,3.4,2.51,3.4,2.58-1.45,2.58-3.4S111.9,15.8,110.22,15.8Z" />
      <path class="cls-1" d="M117.34,12.68a1.11,1.11,0,0,1-1.11-1.09,1.13,1.13,0,0,1,1.11-1.11,1.1,1.1,0,0,1,1.09,1.11A1.09,1.09,0,0,1,117.34,12.68Zm-.88,11.18V14.55h1.74v9.31Z" />
      <path class="cls-1" d="M132.1,23.86V17.52c0-1-.35-1.6-1.36-1.6a3.82,3.82,0,0,0-2.63,1.5v6.44h-1.74V17.52c0-1-.35-1.6-1.36-1.6a3.86,3.86,0,0,0-2.64,1.5v6.44h-1.73V14.55H122l.22,1.35a4.87,4.87,0,0,1,3.23-1.54,2.31,2.31,0,0,1,2.46,1.54,4.91,4.91,0,0,1,3.28-1.54,2.42,2.42,0,0,1,2.63,2.73v6.77Z" />
      <path class="cls-1" d="M137.12,12.68A1.1,1.1,0,0,1,136,11.59a1.1,1.1,0,1,1,2.2,0A1.09,1.09,0,0,1,137.12,12.68Zm-.88,11.18V14.55H138v9.31Z" />
      <path class="cls-1" d="M144.49,23.91h-1.7l-3.27-9.22,1.77-.27,2.38,7.35,2.3-7.22h1.81Z" />
      <path class="cls-1" d="M150.87,14.55v6.34c0,1,.41,1.6,1.42,1.6A4,4,0,0,0,155,21V14.55h1.74v9.31h-1.39l-.21-1.35a5,5,0,0,1-3.3,1.54,2.46,2.46,0,0,1-2.69-2.73V14.55Z" />
      <path class="cls-1" d="M160.71,14.55v6.34c0,1,.41,1.6,1.43,1.6a4,4,0,0,0,2.69-1.5V14.55h1.74v9.31h-1.39L165,22.51a5,5,0,0,1-3.3,1.54A2.46,2.46,0,0,1,159,21.32V14.55Z" />
      <path class="cls-1" d="M171.7,24.05a7.64,7.64,0,0,1-3.4-.88l.26-1.64a5.73,5.73,0,0,0,3.27,1.08c1.19,0,1.89-.45,1.89-1.23s-.52-1.17-2.2-1.58c-2.18-.55-3.06-1.21-3.06-2.87,0-1.48,1.25-2.57,3.27-2.57a7.57,7.57,0,0,1,3.07.62l-.28,1.64a5.9,5.9,0,0,0-2.82-.8c-1.06,0-1.6.41-1.6,1.07s.46,1,1.93,1.35c2.3.58,3.33,1.25,3.33,3S174.09,24.05,171.7,24.05Z" />
      <path class="cls-1" d="M182.69,23.86l-.19-1.25a4.4,4.4,0,0,1-3.28,1.44,2.49,2.49,0,0,1-2.73-2.59c0-2.32,2-3.24,5.87-3.65v-.39c0-1.17-.7-1.58-1.77-1.58a8,8,0,0,0-3.22.8l-.23-1.5a9,9,0,0,1,3.6-.78c2.27,0,3.36.92,3.36,3v6.52Zm-.33-4.72c-3.43.33-4.15,1.26-4.15,2.22a1.22,1.22,0,0,0,1.38,1.25,3.94,3.94,0,0,0,2.77-1.31Z" />
      <path class="cls-1" d="M186.5,23.86V10.05l1.73-.27V23.86Z" />
      <path class="cls-1" d="M192.37,14.55v6.34c0,1,.41,1.6,1.42,1.6a4,4,0,0,0,2.69-1.5V14.55h1.74v9.31h-1.39l-.21-1.35a5,5,0,0,1-3.3,1.54,2.46,2.46,0,0,1-2.69-2.73V14.55Z" />
      <path class="cls-1" d="M203.35,24.05a7.64,7.64,0,0,1-3.4-.88l.26-1.64a5.78,5.78,0,0,0,3.27,1.08c1.19,0,1.9-.45,1.9-1.23s-.53-1.17-2.21-1.58c-2.18-.55-3.06-1.21-3.06-2.87,0-1.48,1.25-2.57,3.28-2.57a7.52,7.52,0,0,1,3.06.62l-.28,1.64a5.87,5.87,0,0,0-2.82-.8c-1.06,0-1.6.41-1.6,1.07s.47,1,1.93,1.35c2.3.58,3.33,1.25,3.33,3S205.75,24.05,203.35,24.05Z" />
      <path class="cls-1" d="M211.87,24c-1.64,0-2.71-.58-2.71-2.46V16h-1.4V14.55h1.4v-3.1l1.7-.25v3.35h2L213.1,16h-2.24v5.22c0,.76.31,1.23,1.28,1.23a4.42,4.42,0,0,0,.8-.06l.24,1.48A6.45,6.45,0,0,1,211.87,24Z" />
      <path class="cls-1" d="M220.49,23.86l-.2-1.25A4.37,4.37,0,0,1,217,24.05a2.48,2.48,0,0,1-2.73-2.59c0-2.32,2-3.24,5.87-3.65v-.39c0-1.17-.7-1.58-1.78-1.58a7.92,7.92,0,0,0-3.21.8l-.24-1.5a9,9,0,0,1,3.61-.78c2.26,0,3.35.92,3.35,3v6.52Zm-.33-4.72c-3.43.33-4.16,1.26-4.16,2.22a1.22,1.22,0,0,0,1.39,1.25,4,4,0,0,0,2.77-1.31Z" />
      <rect class="cls-1" width="32" height="32" rx="1" />
      <path class="cls-2" d="M8,12V9.14A1.15,1.15,0,0,1,9.14,8H12v4" />
      <path class="cls-2" d="M8,16h4v7.47a.56.56,0,0,1-.57.53H8.57A.56.56,0,0,1,8,23.47" />
      <path class="cls-2" d="M16,8h7.43a.58.58,0,0,1,.57.57V12H16" />
      <path class="cls-2" d="M23.43,20H16V16h8v3.43A.58.58,0,0,1,23.43,20Z" />
    </g>
  </g>
</svg>
